<?xml version="1.0" encoding="UTF-8"?>
<svg width="531px" height="143px" viewBox="0 0 531 143" version="1.1" xmlns="http://www.w3.org/2000/svg" xmlns:xlink="http://www.w3.org/1999/xlink">
    <!-- Generator: Sketch 49.3 (51167) - http://www.bohemiancoding.com/sketch -->
    <title>Group</title>
    <desc>Created with Sketch.</desc>
    <defs></defs>
    <g id="Page-1" stroke="none" stroke-width="1" fill="none" fill-rule="evenodd">
        <g id="BI_basic_공유용" transform="translate(0.000000, -261.000000)" fill="#000000" fill-rule="nonzero">
            <g id="Group" transform="translate(0.000000, 261.000000)">
                <polygon id="Shape" points="284.2 1.3 283.9 1 283.9 57.5 293.5 57.5 293.5 24.3 311.9 42.7 312.1 42.8 330.5 24.3 330.5 57.5 340.3 57.5 340.3 1 312.1 29.1"></polygon>
                <polygon id="Shape" points="350.3 1.3 350 1 350 57.5 359.6 57.5 359.6 24.3 378.1 42.7 378.2 42.8 396.6 24.3 396.6 57.5 406.4 57.5 406.4 1 378.2 29.1"></polygon>
                <polygon id="Shape" points="521.3 1 521.3 34.3 482.4 1.1 482.1 0.8 482.1 57.2 491.7 57.2 491.7 24 530.7 57.3 531 57.5 531 1"></polygon>
                <polygon id="Shape" points="459.1 86.1 459.1 119.3 420.3 86.1 420 85.9 420 142.1 429.6 142.1 429.6 109 468.4 142.1 468.7 142.4 468.7 86.1"></polygon>
                <path d="M267.1,115.4 C269.3,112.2 270.4,108.7 270.4,104.8 C270.4,99.7 268.5,95.3 264.9,91.6 C261.2,87.9 256.8,86.1 251.7,86.1 L223.7,86.1 L223.7,142.1 L233.3,142.1 L233.3,123.6 L248.8,123.6 L260.5,142.1 L260.5,142.2 L271.6,142.2 L259,122.1 C262.3,120.7 265,118.5 267.1,115.4 Z M233.3,95.8 L251.8,95.8 C254.3,95.8 256.4,96.7 258.2,98.5 C260,100.3 260.9,102.4 260.9,104.9 C260.9,107.4 260,109.6 258.2,111.4 C256.4,113.2 254.3,114.1 251.8,114.1 L233.3,114 L233.3,95.8 Z" id="Shape"></path>
                <path d="M392.8,118.8 C392.8,122.6 391.3,125.8 388.4,128.6 C385.6,131.3 382.1,132.7 378.1,132.7 C374.1,132.7 370.6,131.3 367.7,128.6 C364.9,126 363.5,122.7 363.5,118.8 L363.5,85.8 L353.3,85.8 L353.3,118.8 C353.3,125.2 355.7,130.9 360.5,135.5 C365.4,140 371.3,142.4 378.1,142.4 C384.9,142.4 390.8,140.1 395.7,135.5 C400.6,130.9 403,125.3 403,118.8 L403,85.8 L392.7,85.8 L392.7,118.8 L392.8,118.8 Z" id="Shape"></path>
                <path d="M522.7,94.4 C520.1,91.8 517.1,89.8 513.7,88.3 C510.3,86.8 506.6,86.1 502.8,86.1 L482,86.1 L482,142.5 L502.8,142.5 C506.6,142.5 510.3,141.7 513.7,140.3 C517.1,138.8 520.1,136.8 522.7,134.2 C525.2,131.6 527.3,128.6 528.7,125.2 C530.2,121.8 530.9,118.1 530.9,114.3 C530.9,110.5 530.2,106.8 528.7,103.4 C527.4,100 525.3,97 522.7,94.4 Z M502.9,132.8 L491.7,132.8 L491.7,95.9 L502.9,95.9 C505.4,95.9 507.8,96.4 510,97.3 C512.2,98.3 514.2,99.6 515.9,101.3 C517.6,103 518.9,105 519.9,107.2 C520.9,109.4 521.3,111.8 521.3,114.3 C521.3,116.8 520.8,119.2 519.9,121.4 C518.9,123.6 517.6,125.6 515.9,127.3 C514.2,129 512.3,130.3 510,131.3 C507.9,132.3 505.4,132.8 502.9,132.8 Z" id="Shape"></path>
                <path d="M261,18.7 C263.2,21.8 264.4,25.3 264.4,29.3 C264.4,34.4 262.6,38.8 259,42.4 C255.4,46 251,47.8 245.9,47.8 C240.8,47.8 236.4,46 232.8,42.4 C229.2,38.7 227.4,34.3 227.4,29.3 C227.4,24.3 229.2,19.9 232.8,16.2 C236.5,12.6 240.9,10.8 245.9,10.8 C248.7,10.8 251.2,11.4 253.6,12.5 L260.8,5.3 C256.4,2.5 251.4,1.1 245.9,1.1 C238.1,1.1 231.4,3.9 226,9.4 C220.5,14.9 217.7,21.6 217.7,29.3 C217.7,37.1 220.5,43.8 226,49.2 C231.5,54.7 238.2,57.5 245.9,57.5 C253.7,57.5 260.4,54.7 265.8,49.2 C271.4,43.8 274.2,37.1 274.2,29.3 C274.2,22.7 272.1,16.8 268,11.8 L261,18.7 Z" id="Shape"></path>
                <path d="M326.2,103.8 C328.4,106.9 329.6,110.4 329.6,114.4 C329.6,119.4 327.8,123.8 324.2,127.5 C320.6,131 316.2,132.8 311.2,132.8 C306.2,132.8 301.8,131 298.1,127.5 C294.5,123.8 292.7,119.4 292.7,114.4 C292.7,109.4 294.5,105 298,101.4 C301.7,97.8 306.1,96 311.1,96 C313.9,96 316.4,96.6 318.8,97.7 L326,90.5 C321.6,87.7 316.7,86.3 311.2,86.3 C303.4,86.3 296.7,89.1 291.3,94.6 C285.8,100.1 283,106.8 283,114.5 C283,122.2 285.8,128.9 291.3,134.4 C296.7,139.9 303.4,142.7 311.2,142.7 C318.9,142.7 325.6,139.9 331.1,134.4 C336.6,129 339.5,122.3 339.5,114.5 C339.5,107.9 337.4,102 333.3,97 L326.2,103.8 Z" id="Shape"></path>
                <path d="M459.4,18.7 C461.6,21.8 462.8,25.3 462.8,29.3 C462.8,34.4 461,38.8 457.4,42.4 C453.8,46 449.4,47.8 444.3,47.8 C439.2,47.8 434.8,46 431.2,42.4 C427.6,38.7 425.8,34.3 425.8,29.3 C425.8,24.3 427.6,19.9 431.2,16.2 C434.9,12.6 439.3,10.8 444.3,10.8 C447.1,10.8 449.6,11.4 452,12.5 L459.2,5.3 C454.8,2.5 449.8,1.1 444.3,1.1 C436.5,1.1 429.8,3.9 424.4,9.4 C418.9,14.9 416.1,21.6 416.1,29.3 C416.1,37.1 418.9,43.8 424.4,49.2 C429.9,54.7 436.6,57.5 444.3,57.5 C452.1,57.5 458.8,54.7 464.2,49.2 C469.8,43.8 472.6,37.1 472.6,29.3 C472.6,22.7 470.5,16.8 466.4,11.8 L459.4,18.7 Z" id="Shape"></path>
                <g id="Shape">
                    <polygon points="132.4 0.7 78.2 0.7 78.2 10.4 132.4 10.4 132.4 133 99 133 89.6 123.6 75.9 123.6 95.1 142.7 132.4 142.7 142 142.7 142 133 142 10.4 142 0.7"></polygon>
                    <polygon points="10 10.4 64.2 10.4 64.2 0.7 10 0.7 0.3 0.7 0.3 10.4 0.3 133 0.3 142.7 10 142.7 64.2 142.7 64.2 133 10 133"></polygon>
                </g>
                <path d="M204.9,39.5 L204.8,39.6 C201.9,43.8 198,46.5 193.1,47.4 C190.6,47.9 188.1,47.9 185.7,47.4 C183.3,46.9 181.1,46 179.1,44.7 C177.2,43.4 175.5,41.7 174,39.7 C172.6,37.7 171.6,35.4 171.1,32.9 C170.6,30.4 170.6,27.9 171.1,25.5 C171.6,23.1 172.6,20.9 173.9,18.9 C175.2,16.9 176.9,15.2 178.9,13.9 C180.9,12.5 183.2,11.6 185.7,11.1 C190,10.2 194.1,10.8 197.9,12.9 L205,5.8 C202,3.8 198.6,2.4 195,1.6 C191.4,0.8 187.6,0.8 183.8,1.6 C180,2.4 176.5,3.8 173.5,6 C170.5,8.1 167.9,10.7 165.9,13.8 C163.9,16.8 162.5,20.2 161.7,23.9 C160.9,27.6 160.9,31.3 161.7,35 C162.5,38.8 163.9,42.3 166.1,45.3 C168.2,48.3 170.8,50.9 173.8,52.9 C176.8,54.9 180.2,56.3 183.8,57.1 C187.4,57.9 191.2,57.9 195,57.1 C198.8,56.3 202.3,54.9 205.3,52.8 C207.8,51.1 210,48.9 211.8,46.5 L204.9,39.5 Z" id="Shape"></path>
                <path d="M188.9,109.5 L188.9,119.1 L202.9,119.1 L202.9,126.5 C201.2,128.4 199.1,130 196.8,131 C194.4,132.1 191.9,132.6 189.1,132.6 C184.1,132.6 179.7,130.8 176,127.3 C172.5,123.7 170.7,119.2 170.7,114.2 C170.7,109.2 172.5,104.8 176,101.2 C179.7,97.6 184.1,95.8 189.1,95.8 C192.4,95.8 195.4,96.6 198.1,98.1 L204.8,91.4 L205,91.1 C203.4,90 201.8,89.1 200,88.3 C196.6,86.8 192.9,86.1 189.1,86.1 C181.4,86.1 174.7,88.9 169.3,94.4 C163.8,99.9 161,106.6 161,114.2 C161,121.9 163.8,128.6 169.3,134 C174.7,139.5 181.4,142.3 189.1,142.3 C191.5,142.3 193.9,142 196.1,141.4 C198.4,140.8 200.5,140 202.5,138.8 C204.5,137.7 206.4,136.3 208,134.8 C209.7,133.2 211.2,131.5 212.5,129.6 L212.5,109.4 L188.9,109.4 L188.9,109.5 Z" id="Shape"></path>
            </g>
        </g>
    </g>
</svg>